<svg width="42" height="48" viewBox="0 0 42 48" fill="none" xmlns="http://www.w3.org/2000/svg">
<path d="M22.6017 28.61L17.3175 24.0035L22.6017 19.3899L20.6884 17.7188L13.498 24.0035L20.6884 30.2812L22.6017 28.61Z" fill="#FFFBFA" fill-opacity="0.16"/>
<path d="M13.834 6.19238L14.7941 7.03511L15.6912 7.82071H22.8605L21.2697 6.19238H13.834Z" fill="#FFFBFA" fill-opacity="0.16"/>
<path d="M24.1644 33.3447L26.7084 31.1165L29.0772 29.0454H31.3338L37.1155 23.9961L31.3338 18.9469H29.0842L26.7154 16.8758L24.1714 14.6475H26.4281L22.1181 10.8838L18.3477 14.169L29.5888 23.9961L18.3477 33.8232L22.1181 37.1085L26.4281 33.3447H24.1644ZM20.4501 34.6588L19.49 33.8232L30.7311 24.0033L19.49 14.1762L20.4501 13.3406L32.6513 23.9961L20.4501 34.6588Z" fill="#FFFBFA" fill-opacity="0.16"/>
<path d="M13.834 41.808L14.7941 40.9653L15.6912 40.1797H22.8605L21.2697 41.808H13.834Z" fill="#FFFBFA" fill-opacity="0.16"/>
<path d="M6.36328 41.808L7.3234 40.9653L8.22045 40.1797H15.3898L13.799 41.808H6.36328Z" fill="#FFFBFA" fill-opacity="0.16"/>
<path d="M6.36328 6.19238L7.3234 7.03511L8.22045 7.82071H15.3898L13.799 6.19238H6.36328Z" fill="#FFFBFA" fill-opacity="0.16"/>
<path d="M15.0878 13.3764L13.9665 14.3476L12.8522 13.3764L4.926 6.44882L3.80469 5.47754H6.04029L15.0878 13.3764Z" fill="#FFFBFA" fill-opacity="0.16"/>
<path d="M15.0878 34.6236L13.9665 33.6523L12.8522 34.6236L4.926 41.5512L3.80469 42.5225H6.04029L15.0878 34.6236Z" fill="#FFFBFA" fill-opacity="0.16"/>
<path d="M21.6204 6.19238H20.6463L20.5762 6.28523L40.8578 24.004L20.5762 41.7157L20.6463 41.8085H21.6204L42.0002 24.004L21.6204 6.19238Z" fill="#FFFBFA" fill-opacity="0.16"/>
<path d="M20.4849 37.7156L19.0342 36.4443L17.5765 37.7156L7.26044 46.7285L5.80273 47.9998H8.71113L20.4849 37.7156Z" fill="#FFFBFA" fill-opacity="0.16"/>
<path d="M8.71117 47.9997L7.26047 46.7285L5.90089 45.543H0V47.9997H8.71117Z" fill="#FFFBFA" fill-opacity="0.16"/>
<path d="M20.4849 10.2842L19.0342 11.5554L17.5765 10.2842L7.26044 1.27124L5.80273 0H8.71113L20.4849 10.2842Z" fill="#FFFBFA" fill-opacity="0.16"/>
<path d="M8.71117 0L7.26047 1.27124L5.90089 2.45678H0V0H8.71117Z" fill="#FFFBFA" fill-opacity="0.16"/>
</svg>
