<svg width="406" height="48" viewBox="0 0 406 48" fill="none" xmlns="http://www.w3.org/2000/svg">
<g clip-path="url(#clip0_798_1138)">
<path d="M19.3964 28.538L24.6805 24.0035L19.3964 19.462L21.3096 17.8169L28.5 24.0035L21.3096 30.183L19.3964 28.538Z" fill="#FFFBFA" fill-opacity="0.16"/>
<path d="M28.1641 6.47021L27.2039 7.29978L26.3069 8.0731H19.1375L20.7284 6.47021H28.1641Z" fill="#FFFBFA" fill-opacity="0.16"/>
<path d="M17.8356 33.1989L15.2916 31.0054L12.9228 28.9667H10.6662L4.88446 23.9963L10.6662 19.026H12.9158L15.2846 16.9872L17.8286 14.7938H15.5719L19.8819 11.0889L23.6523 14.3228L12.4112 23.9963L23.6523 33.6699L19.8819 36.9038L15.5719 33.1989H17.8356ZM21.5499 34.4924L22.51 33.6699L11.2689 24.0034L22.51 14.3298L21.5499 13.5073L9.34867 23.9963L21.5499 34.4924Z" fill="#FFFBFA" fill-opacity="0.16"/>
<path d="M28.1641 41.5296L27.2039 40.7001L26.3069 39.9268H19.1375L20.7284 41.5296H28.1641Z" fill="#FFFBFA" fill-opacity="0.16"/>
<path d="M35.6367 41.5296L34.6766 40.7001L33.7796 39.9268H26.6102L28.201 41.5296H35.6367Z" fill="#FFFBFA" fill-opacity="0.16"/>
<path d="M35.6367 6.47021L34.6766 7.29978L33.7796 8.0731H26.6102L28.201 6.47021H35.6367Z" fill="#FFFBFA" fill-opacity="0.16"/>
<path d="M26.9122 13.5425L28.0335 14.4986L29.1478 13.5425L37.074 6.7232L38.1953 5.76709H35.9597L26.9122 13.5425Z" fill="#FFFBFA" fill-opacity="0.16"/>
<path d="M26.9122 34.4576L28.0335 33.5015L29.1478 34.4576L37.074 41.2769L38.1953 42.233H35.9597L26.9122 34.4576Z" fill="#FFFBFA" fill-opacity="0.16"/>
<path d="M20.3816 6.47021H21.3557L21.4258 6.56161L1.14411 24.0035L21.4258 41.4384L21.3557 41.5298H20.3816L0.0017806 24.0035L20.3816 6.47021Z" fill="#FFFBFA" fill-opacity="0.16"/>
<path d="M21.5132 37.5014L22.9639 36.25L24.4216 37.5014L34.7376 46.3735L36.1953 47.6249H33.2869L21.5132 37.5014Z" fill="#FFFBFA" fill-opacity="0.16"/>
<path d="M33.2888 47.6249L34.7395 46.3736L36.0991 45.2065H42V47.6249H33.2888Z" fill="#FFFBFA" fill-opacity="0.16"/>
<path d="M21.5132 10.4985L22.9639 11.7499L24.4216 10.4985L34.7376 1.62638L36.1953 0.375H33.2869L21.5132 10.4985Z" fill="#FFFBFA" fill-opacity="0.16"/>
<path d="M33.2888 0.375L34.7395 1.62638L36.0991 2.79339H42V0.375H33.2888Z" fill="#FFFBFA" fill-opacity="0.16"/>
</g>
<path d="M90 12L113.455 36H126L102.636 12.093L90 12Z" fill="#FFFBFA" fill-opacity="0.08"/>
<path d="M118 12L141.455 36H154L130.636 12.093L118 12Z" fill="#FFFBFA" fill-opacity="0.08"/>
<path d="M146 12L169.455 36H182L158.636 12.093L146 12Z" fill="#FFFBFA" fill-opacity="0.08"/>
<path d="M174 12L197.455 36H210L186.636 12.093L174 12Z" fill="#FFFBFA" fill-opacity="0.08"/>
<path d="M202 12L225.455 36H238L214.636 12.093L202 12Z" fill="#FFFBFA" fill-opacity="0.08"/>
<path d="M230 12L253.455 36H266L242.636 12.093L230 12Z" fill="#FFFBFA" fill-opacity="0.08"/>
<path d="M258 12L281.455 36H294L270.636 12.093L258 12Z" fill="#FFFBFA" fill-opacity="0.08"/>
<path d="M286 12L309.455 36H322L298.636 12.093L286 12Z" fill="#FFFBFA" fill-opacity="0.08"/>
<path d="M314 12L337.455 36H350L326.636 12.093L314 12Z" fill="#FFFBFA" fill-opacity="0.08"/>
<path d="M342 12L365.455 36H378L354.636 12.093L342 12Z" fill="#FFFBFA" fill-opacity="0.08"/>
<path d="M370 12L393.455 36H406L382.636 12.093L370 12Z" fill="#FFFBFA" fill-opacity="0.08"/>
<defs>
<clipPath id="clip0_798_1138">
<rect width="42" height="47.25" fill="white" transform="matrix(-1 0 0 1 42 0.375)"/>
</clipPath>
</defs>
</svg>
