<svg width="406" height="48" viewBox="0 0 406 48" fill="none" xmlns="http://www.w3.org/2000/svg">
<path d="M36 12L12.5455 36H0L23.3636 12.093L36 12Z" fill="#FFFBFA" fill-opacity="0.08"/>
<path d="M64 12L40.5455 36H28L51.3636 12.093L64 12Z" fill="#FFFBFA" fill-opacity="0.08"/>
<path d="M92 12L68.5455 36H56L79.3636 12.093L92 12Z" fill="#FFFBFA" fill-opacity="0.08"/>
<path d="M120 12L96.5455 36H84L107.364 12.093L120 12Z" fill="#FFFBFA" fill-opacity="0.08"/>
<path d="M148 12L124.545 36H112L135.364 12.093L148 12Z" fill="#FFFBFA" fill-opacity="0.08"/>
<path d="M176 12L152.545 36H140L163.364 12.093L176 12Z" fill="#FFFBFA" fill-opacity="0.08"/>
<path d="M204 12L180.545 36H168L191.364 12.093L204 12Z" fill="#FFFBFA" fill-opacity="0.08"/>
<path d="M232 12L208.545 36H196L219.364 12.093L232 12Z" fill="#FFFBFA" fill-opacity="0.08"/>
<path d="M260 12L236.545 36H224L247.364 12.093L260 12Z" fill="#FFFBFA" fill-opacity="0.08"/>
<path d="M288 12L264.545 36H252L275.364 12.093L288 12Z" fill="#FFFBFA" fill-opacity="0.08"/>
<path d="M316 12L292.545 36H280L303.364 12.093L316 12Z" fill="#FFFBFA" fill-opacity="0.08"/>
<path d="M386.604 28.61L381.319 24.0035L386.604 19.3899L384.69 17.7188L377.5 24.0035L384.69 30.2812L386.604 28.61Z" fill="#FFFBFA" fill-opacity="0.16"/>
<path d="M377.836 6.19189L378.796 7.03463L379.693 7.82022H386.862L385.272 6.19189H377.836Z" fill="#FFFBFA" fill-opacity="0.16"/>
<path d="M388.164 33.3452L390.708 31.117L393.077 29.0459H395.334L401.116 23.9966L395.334 18.9474H393.084L390.715 16.8762L388.171 14.648H390.428L386.118 10.8843L382.348 14.1695L393.589 23.9966L382.348 33.8237L386.118 37.1089L390.428 33.3452H388.164ZM384.45 34.6593L383.49 33.8237L394.731 24.0038L383.49 14.1766L384.45 13.3411L396.651 23.9966L384.45 34.6593Z" fill="#FFFBFA" fill-opacity="0.16"/>
<path d="M377.836 41.808L378.796 40.9653L379.693 40.1797H386.862L385.272 41.808H377.836Z" fill="#FFFBFA" fill-opacity="0.16"/>
<path d="M370.363 41.808L371.323 40.9653L372.22 40.1797H379.39L377.799 41.808H370.363Z" fill="#FFFBFA" fill-opacity="0.16"/>
<path d="M370.363 6.19189L371.323 7.03463L372.22 7.82022H379.39L377.799 6.19189H370.363Z" fill="#FFFBFA" fill-opacity="0.16"/>
<path d="M379.088 13.3764L377.967 14.3476L376.852 13.3764L368.926 6.44882L367.805 5.47754H370.04L379.088 13.3764Z" fill="#FFFBFA" fill-opacity="0.16"/>
<path d="M379.088 34.6236L377.967 33.6523L376.852 34.6236L368.926 41.5512L367.805 42.5225H370.04L379.088 34.6236Z" fill="#FFFBFA" fill-opacity="0.16"/>
<path d="M385.618 6.19189H384.644L384.574 6.28474L404.856 24.0035L384.574 41.7152L384.644 41.808H385.618L405.998 24.0035L385.618 6.19189Z" fill="#FFFBFA" fill-opacity="0.16"/>
<path d="M384.487 37.7156L383.036 36.4443L381.578 37.7156L371.262 46.7285L369.805 47.9998H372.713L384.487 37.7156Z" fill="#FFFBFA" fill-opacity="0.16"/>
<path d="M372.711 47.9997L371.26 46.7285L369.901 45.543H364V47.9997H372.711Z" fill="#FFFBFA" fill-opacity="0.16"/>
<path d="M384.487 10.2842L383.036 11.5554L381.578 10.2842L371.262 1.27124L369.805 0H372.713L384.487 10.2842Z" fill="#FFFBFA" fill-opacity="0.16"/>
<path d="M372.711 0L371.26 1.27124L369.901 2.45678H364V0H372.711Z" fill="#FFFBFA" fill-opacity="0.16"/>
</svg>
