<svg width="26" height="26" viewBox="0 0 26 26" fill="none" xmlns="http://www.w3.org/2000/svg">
<path d="M25.7979 25.8009V16.4249C25.7979 11.8169 24.8059 8.29688 19.4299 8.29688C16.8379 8.29688 15.1099 9.70488 14.4059 11.0489H14.3419V8.71287H9.25391V25.8009H14.5659V17.3209C14.5659 15.0809 14.9819 12.9369 17.7339 12.9369C20.4539 12.9369 20.4859 15.4649 20.4859 17.4489V25.7689H25.7979V25.8009Z" fill="#FFFBFA"/>
<path d="M0.615234 8.71191H5.92723V25.7999H0.615234V8.71191Z" fill="#FFFBFA"/>
<path d="M3.27122 0.200195C1.57522 0.200195 0.199219 1.5762 0.199219 3.2722C0.199219 4.9682 1.57522 6.37619 3.27122 6.37619C4.96722 6.37619 6.34322 4.9682 6.34322 3.2722C6.34322 1.5762 4.96722 0.200195 3.27122 0.200195Z" fill="#FFFBFA"/>
</svg>
