<svg width="32" height="32" viewBox="0 0 32 32" fill="none" xmlns="http://www.w3.org/2000/svg">
<g clip-path="url(#clip0_430_2504)">
<path d="M3.50882 20.2576L2.42943 20.6773C0.810326 21.3669 -0.0292074 22.0865 0.000775893 22.7162C0.0907259 23.6457 1.14014 24.3353 3.05908 24.845C5.54769 25.5046 8.06629 25.6546 10.6748 25.2648V22.6562L8.60599 23.4358C6.44719 24.1854 5.33781 23.5557 5.33781 23.5557C5.00799 23.3458 4.85807 22.8361 5.75757 22.5063L6.89694 22.0865L10.6748 20.7373V17.709L9.71537 18.0388L3.50882 20.2576Z" fill="#FFFBFA"/>
<path d="M19.2798 9.73379V17.4995C20.8989 18.279 22.3381 18.339 23.4175 17.5294C24.5268 16.7499 25.1265 15.4006 25.1265 13.3618C25.1265 11.233 24.7068 9.61385 23.7773 8.53445C22.9377 7.39509 21.4386 6.43562 19.2198 5.68604C16.4613 4.78654 14.1226 4.00697 12.2637 3.61719V26.8543L17.2709 28.3834V9.07415C17.2409 7.9048 19.2798 7.99475 19.2798 9.73379Z" fill="#FFFBFA"/>
<path d="M31.9938 21.7277C31.9638 20.9182 31.0043 20.2885 29.2953 19.7188C27.3763 19.0892 25.7272 18.7893 23.9282 18.8493C22.2792 18.8793 20.3003 19.419 18.5312 19.9887V22.957L23.3885 21.248C23.3885 21.248 24.8577 20.7083 26.117 21.0381C27.0765 21.278 27.0165 21.8177 26.0571 22.1475L24.9477 22.5972L18.5312 24.9059V27.9343L21.5296 26.8549L28.7256 24.3063L29.5651 23.9165C31.3041 23.2868 32.0837 22.5972 31.9938 21.7277Z" fill="#FFFBFA"/>
</g>
<defs>
<clipPath id="clip0_430_2504">
<rect width="32" height="32" fill="white"/>
</clipPath>
</defs>
</svg>
