<svg width="32" height="32" viewBox="0 0 32 32" fill="none" xmlns="http://www.w3.org/2000/svg">
<path d="M16 0.375C7.37056 0.375 0.375 7.37056 0.375 16C0.375 24.6294 7.37056 31.625 16 31.625C24.6294 31.625 31.625 24.6294 31.625 16C31.625 7.37056 24.6294 0.375 16 0.375ZM21.3307 17.6959L16.0479 21.5139C15.8562 23.5771 14.0917 25.1918 11.966 25.1918C11.0322 25.1924 10.126 24.8752 9.39643 24.2924C8.66686 23.7095 8.15737 22.8958 7.95175 21.9849L5.17225 20.8804V15.7449L9.86875 17.6231C10.6017 17.1856 11.425 16.9895 12.3833 17.0736L15.8112 12.2072C15.8337 9.22456 18.2976 6.80819 21.3195 6.80819C24.3584 6.80819 26.8222 9.25262 26.8278 12.2465C26.8277 15.2625 24.3583 17.6959 21.3307 17.6959Z" fill="#FFFBFA"/>
<path d="M11.9653 18.1221C11.7453 18.1214 11.5259 18.1458 11.3113 18.195L12.5687 18.6995C12.8604 18.813 13.1268 18.9833 13.3522 19.2006C13.5777 19.4178 13.7578 19.6776 13.8821 19.965C14.0064 20.2523 14.0724 20.5615 14.0763 20.8746C14.0802 21.1876 14.0219 21.4983 13.9048 21.7887C13.7862 22.0809 13.611 22.3468 13.3895 22.5712C13.1679 22.7957 12.9042 22.9742 12.6136 23.0966C12.3229 23.2189 12.011 23.2828 11.6956 23.2844C11.3802 23.2861 11.0676 23.2255 10.7757 23.1062C10.2852 22.9156 9.78347 22.7081 9.29297 22.5231C9.53899 22.9989 9.90725 23.4005 10.3599 23.6867C10.8126 23.973 11.3333 24.1335 11.8685 24.1518C12.4038 24.1701 12.9343 24.0456 13.4054 23.791C13.8766 23.5363 14.2715 23.1608 14.5495 22.7031C14.8274 22.2453 14.9785 21.7217 14.9871 21.1862C14.9957 20.6507 14.8615 20.1226 14.5984 19.6561C14.3352 19.1897 13.9526 18.8017 13.4899 18.5321C13.0271 18.2625 12.5009 18.121 11.9653 18.1221Z" fill="#FFFBFA"/>
<path d="M21.3255 8.60156C19.2789 8.60156 17.627 10.2387 17.627 12.2516C17.627 14.2755 19.2845 15.9016 21.3255 15.9016C23.3495 15.9072 25.013 14.2757 25.0071 12.2516C25.0071 10.2387 23.3496 8.60156 21.3255 8.60156ZM21.317 14.4434C20.8845 14.4387 20.463 14.3063 20.1056 14.0626C19.7482 13.8189 19.4709 13.4749 19.3085 13.074C19.1462 12.673 19.1061 12.233 19.1934 11.8094C19.2806 11.3857 19.4912 10.9973 19.7987 10.693C20.1062 10.3888 20.4968 10.1824 20.9214 10.0997C21.346 10.017 21.7856 10.0618 22.1848 10.2284C22.5839 10.395 22.9249 10.6759 23.1648 11.0359C23.4046 11.3959 23.5326 11.8188 23.5326 12.2514C23.5315 12.5409 23.4733 12.8274 23.3613 13.0944C23.2493 13.3614 23.0857 13.6037 22.8799 13.8073C22.6741 14.011 22.4301 14.172 22.1619 14.2811C21.8937 14.3903 21.6066 14.4454 21.3171 14.4434H21.317Z" fill="#FFFBFA"/>
</svg>
