<svg width="32" height="32" viewBox="0 0 32 32" fill="none" xmlns="http://www.w3.org/2000/svg">
<path d="M7.12895 2.71475C7.11279 2.72719 7.10035 2.74087 7.08543 2.7533C7.17621 2.65755 7.30679 2.55433 7.3926 2.49837C9.89718 0.870511 12.791 0 16.002 0C19.0052 0 21.8182 0.829473 24.2196 2.27203C24.3937 2.37525 24.8687 2.70107 25.1137 2.99705V2.99829C22.7969 0.443961 15.987 5.92445 15.987 5.92445C13.6317 4.10881 11.4653 2.87144 9.85241 2.43121C8.50436 2.06187 7.57167 2.37028 7.12895 2.71475ZM27.7377 5.1298C27.6668 5.05145 27.5897 4.97808 27.5188 4.89725C26.9331 4.25431 26.213 4.09887 25.5639 4.14115C24.9732 4.32644 22.2435 5.31012 18.8796 8.48624C18.8796 8.48624 22.6663 12.1685 24.9856 15.9328C27.3024 19.6972 28.6878 22.6557 27.8359 26.762C30.4214 23.9204 31.9982 20.1449 31.9982 15.9988C31.9982 11.8029 30.3828 7.98383 27.7377 5.1298ZM21.9575 17.5408C20.9303 16.388 19.4019 14.7365 17.3836 12.7294C16.9421 12.2904 16.4758 11.8327 15.9858 11.3589C15.9858 11.3589 15.2483 12.0964 14.2883 13.0664V13.0651C13.0596 14.3062 11.4666 15.9254 10.5824 16.8705C9.00802 18.5506 4.49752 23.8271 4.24383 26.7856C4.24383 26.7856 3.24026 24.439 5.44265 19.0269C6.88148 15.4889 11.2291 10.1763 13.0447 8.4452C13.0447 8.4452 11.3858 6.61962 9.30399 5.35862L9.29155 5.35489C9.29155 5.35489 9.26793 5.33623 9.23062 5.31261C8.22953 4.71568 7.13642 4.25556 6.08434 4.19462C5.00988 4.27048 4.32964 5.05643 4.32964 5.05643C1.64473 7.91917 0.00195312 11.7668 0.00195312 16C0.00195312 24.8357 7.16502 32 16.002 32C20.6915 32 24.911 29.9779 27.8384 26.7633C27.8372 26.7583 27.5014 24.6492 25.3488 21.6235C24.8426 20.9147 22.9934 18.7023 21.9575 17.5408Z" fill="#FFFBFA"/>
</svg>
